<?xml version="1.0" encoding="UTF-8" standalone="no"?>
<!DOCTYPE svg PUBLIC "-//W3C//DTD SVG 1.1//EN" "http://www.w3.org/Graphics/SVG/1.1/DTD/svg11.dtd">
<svg version="1.1" xmlns="http://www.w3.org/2000/svg" xmlns:xlink="http://www.w3.org/1999/xlink" preserveAspectRatio="xMidYMid meet" viewBox="0 0 640 640" width="640" height="640"><defs><path d="M193.89 65.25L195.08 65.32L196.27 65.43L197.43 65.56L198.58 65.72L199.72 65.9L200.83 66.11L201.92 66.35L203 66.61L204.05 66.9L205.08 67.21L206.09 67.54L207.08 67.9L208.04 68.28L208.97 68.68L209.88 69.1L210.76 69.54L211.61 70L212.43 70.49L213.22 70.99L213.98 71.5L214.7 72.04L215.39 72.59L216.05 73.16L216.67 73.75L217.26 74.35L217.81 74.96L218.32 75.59L218.79 76.23L219.22 76.89L219.61 77.55L219.95 78.23L220.26 78.92L220.52 79.62L220.73 80.33L220.9 81.05L221.02 81.78L221.1 82.52L221.12 83.26L221.12 112.9L290.34 112.9L290.34 83.26L290.36 82.52L290.43 81.78L290.56 81.05L290.72 80.33L290.94 79.62L291.2 78.92L291.5 78.23L291.85 77.55L292.24 76.89L292.67 76.23L293.14 75.59L293.65 74.96L294.2 74.35L294.78 73.75L295.41 73.16L296.06 72.59L296.75 72.04L297.48 71.5L298.24 70.99L299.03 70.49L299.85 70L300.7 69.54L301.58 69.1L302.49 68.68L303.42 68.28L304.38 67.9L305.36 67.54L306.37 67.21L307.4 66.9L308.46 66.61L309.53 66.35L310.63 66.11L311.74 65.9L312.88 65.72L314.02 65.56L315.19 65.43L316.37 65.32L317.57 65.25L318.78 65.21L320 65.2L321.22 65.21L322.43 65.25L323.63 65.32L324.81 65.43L325.98 65.56L327.12 65.72L328.26 65.9L329.37 66.11L330.47 66.35L331.54 66.61L332.6 66.9L333.63 67.21L334.64 67.54L335.62 67.9L336.58 68.28L337.51 68.68L338.42 69.1L339.3 69.54L340.15 70L340.97 70.49L341.76 70.99L342.52 71.5L343.25 72.04L343.94 72.59L344.59 73.16L345.22 73.75L345.8 74.35L346.35 74.96L346.86 75.59L347.33 76.23L347.76 76.89L348.15 77.55L348.5 78.23L348.8 78.92L349.06 79.62L349.28 80.33L349.44 81.05L349.57 81.78L349.64 82.52L349.66 83.26L349.66 112.9L418.88 112.9L418.88 83.26L418.9 82.52L418.98 81.78L419.1 81.05L419.27 80.33L419.48 79.62L419.74 78.92L420.05 78.23L420.39 77.55L420.78 76.89L421.21 76.23L421.68 75.59L422.19 74.96L422.74 74.35L423.33 73.75L423.95 73.16L424.61 72.59L425.3 72.04L426.02 71.5L426.78 70.99L427.57 70.49L428.39 70L429.24 69.54L430.12 69.1L431.03 68.68L431.96 68.28L432.92 67.9L433.91 67.54L434.92 67.21L435.95 66.9L437 66.61L438.08 66.35L439.17 66.11L440.28 65.9L441.42 65.72L442.57 65.56L443.73 65.43L444.92 65.32L446.11 65.25L447.32 65.21L448.54 65.2L449.76 65.21L450.97 65.25L452.17 65.32L453.35 65.43L454.52 65.56L455.67 65.72L456.8 65.9L457.91 66.11L459.01 66.35L460.08 66.61L461.14 66.9L462.17 67.21L463.18 67.54L464.16 67.9L465.12 68.28L466.06 68.68L466.96 69.1L467.84 69.54L468.69 70L469.51 70.49L470.3 70.99L471.06 71.5L471.79 72.04L472.48 72.59L473.14 73.16L473.76 73.75L474.34 74.35L474.89 74.96L475.4 75.59L475.87 76.23L476.3 76.89L476.69 77.55L477.04 78.23L477.34 78.92L477.6 79.62L477.82 80.33L477.99 81.05L478.11 81.78L478.18 82.52L478.21 83.26L478.21 112.9L636.41 112.9L636.41 636.95L3.59 636.95L3.59 112.9L161.79 112.9L161.79 83.26L161.82 82.52L161.89 81.78L162.01 81.05L162.18 80.33L162.4 79.62L162.66 78.92L162.96 78.23L163.31 77.55L163.7 76.89L164.13 76.23L164.6 75.59L165.11 74.96L165.66 74.35L166.24 73.75L166.86 73.16L167.52 72.59L168.21 72.04L168.94 71.5L169.7 70.99L170.49 70.49L171.31 70L172.16 69.54L173.04 69.1L173.94 68.68L174.88 68.28L175.84 67.9L176.82 67.54L177.83 67.21L178.86 66.9L179.92 66.61L180.99 66.35L182.09 66.11L183.2 65.9L184.33 65.72L185.48 65.56L186.65 65.43L187.83 65.32L189.03 65.25L190.24 65.21L191.46 65.19L192.68 65.21L193.89 65.25ZM62.92 582.73L577.08 582.73L577.08 167.11L478.21 167.11L478.21 191.69L478.18 192.43L478.11 193.17L477.99 193.9L477.82 194.62L477.6 195.33L477.34 196.03L477.04 196.72L476.69 197.39L476.3 198.06L475.87 198.72L475.4 199.36L474.89 199.99L474.34 200.6L473.76 201.2L473.14 201.79L472.48 202.35L471.79 202.91L471.06 203.44L470.3 203.96L469.51 204.46L468.69 204.94L467.84 205.4L466.96 205.85L466.06 206.27L465.12 206.67L464.16 207.05L463.18 207.4L462.17 207.74L461.14 208.05L460.08 208.34L459.01 208.6L457.91 208.83L456.8 209.05L455.67 209.23L454.52 209.39L453.35 209.52L452.17 209.62L450.97 209.7L449.76 209.74L448.54 209.76L447.32 209.74L446.11 209.7L444.92 209.62L443.73 209.52L442.57 209.39L441.42 209.23L440.28 209.05L439.17 208.83L438.08 208.6L437 208.34L435.95 208.05L434.92 207.74L433.91 207.4L432.92 207.05L431.96 206.67L431.03 206.27L430.12 205.85L429.24 205.4L428.39 204.94L427.57 204.46L426.78 203.96L426.02 203.44L425.3 202.91L424.61 202.35L423.95 201.79L423.33 201.2L422.74 200.6L422.19 199.99L421.68 199.36L421.21 198.72L420.78 198.06L420.39 197.39L420.05 196.72L419.74 196.03L419.48 195.33L419.27 194.62L419.1 193.9L418.98 193.17L418.9 192.43L418.88 191.69L418.88 167.11L349.66 167.11L349.66 191.69L349.64 192.43L349.57 193.17L349.44 193.9L349.28 194.62L349.06 195.33L348.8 196.03L348.5 196.72L348.15 197.39L347.76 198.06L347.33 198.72L346.86 199.36L346.35 199.99L345.8 200.6L345.22 201.2L344.59 201.79L343.94 202.35L343.25 202.91L342.52 203.44L341.76 203.96L340.97 204.46L340.15 204.94L339.3 205.4L338.42 205.85L337.51 206.27L336.58 206.67L335.62 207.05L334.64 207.4L333.63 207.74L332.6 208.05L331.54 208.34L330.47 208.6L329.37 208.83L328.26 209.05L327.12 209.23L325.98 209.39L324.81 209.52L323.63 209.62L322.43 209.7L321.22 209.74L320 209.76L318.78 209.74L317.57 209.7L316.37 209.62L315.19 209.52L314.02 209.39L312.88 209.23L311.74 209.05L310.63 208.83L309.53 208.6L308.46 208.34L307.4 208.05L306.37 207.74L305.36 207.4L304.38 207.05L303.42 206.67L302.49 206.27L301.58 205.85L300.7 205.4L299.85 204.94L299.03 204.46L298.24 203.96L297.48 203.44L296.75 202.91L296.06 202.35L295.41 201.79L294.78 201.2L294.2 200.6L293.65 199.99L293.14 199.36L292.67 198.72L292.24 198.06L291.85 197.39L291.5 196.72L291.2 196.03L290.94 195.33L290.72 194.62L290.56 193.9L290.43 193.17L290.36 192.43L290.34 191.69L290.34 167.11L221.12 167.11L221.12 191.69L221.1 192.43L221.02 193.17L220.9 193.9L220.73 194.62L220.52 195.33L220.26 196.03L219.95 196.72L219.61 197.39L219.22 198.06L218.79 198.72L218.32 199.36L217.81 199.99L217.26 200.6L216.67 201.2L216.05 201.79L215.39 202.35L214.7 202.91L213.98 203.44L213.22 203.96L212.43 204.46L211.61 204.94L210.76 205.4L209.88 205.85L208.97 206.27L208.04 206.67L207.08 207.05L206.09 207.4L205.08 207.74L204.05 208.05L203 208.34L201.92 208.6L200.83 208.83L199.72 209.05L198.58 209.23L197.43 209.39L196.27 209.52L195.08 209.62L193.89 209.7L192.68 209.74L191.46 209.76L190.24 209.74L189.03 209.7L187.83 209.62L186.65 209.52L185.48 209.39L184.33 209.23L183.2 209.05L182.09 208.83L180.99 208.6L179.92 208.34L178.86 208.05L177.83 207.74L176.82 207.4L175.84 207.05L174.88 206.67L173.94 206.27L173.04 205.85L172.16 205.4L171.31 204.94L170.49 204.46L169.7 203.96L168.94 203.44L168.21 202.91L167.52 202.35L166.86 201.79L166.24 201.2L165.66 200.6L165.11 199.99L164.6 199.36L164.13 198.72L163.7 198.06L163.31 197.39L162.96 196.72L162.66 196.03L162.4 195.33L162.18 194.62L162.01 193.9L161.89 193.17L161.82 192.43L161.79 191.69L161.79 167.11L62.92 167.11L62.92 582.73ZM418.88 535.03L418.88 465.37L495.11 465.37L495.11 535.03L418.88 535.03ZM142.02 535.03L142.02 465.37L218.25 465.37L218.25 535.03L142.02 535.03ZM283.32 535.03L283.32 465.37L359.55 465.37L359.55 535.03L283.32 535.03ZM283.32 423.98L283.32 354.32L359.55 354.32L359.55 423.98L283.32 423.98ZM142.02 423.98L142.02 354.32L218.25 354.32L218.25 423.98L142.02 423.98ZM418.88 423.98L418.88 354.32L495.11 354.32L495.11 423.98L418.88 423.98ZM283.32 315.55L283.32 245.9L359.55 245.9L359.55 315.55L283.32 315.55ZM142.02 315.55L142.02 245.9L218.25 245.9L218.25 315.55L142.02 315.55ZM418.88 315.55L418.88 245.9L495.11 245.9L495.11 315.55L418.88 315.55Z" id="e3MHEWCwM4"></path></defs><g><g><g><g><filter id="shadow8749185" x="-5.41" y="56.19" width="651.82" height="590.76" filterUnits="userSpaceOnUse" primitiveUnits="userSpaceOnUse"><feFlood></feFlood><feComposite in2="SourceAlpha" operator="in"></feComposite><feGaussianBlur stdDeviation="1"></feGaussianBlur><feOffset dx="1" dy="1" result="afterOffset"></feOffset><feFlood flood-color="#000000" flood-opacity="0.5"></feFlood><feComposite in2="afterOffset" operator="in"></feComposite><feMorphology operator="dilate" radius="1"></feMorphology><feComposite in2="SourceAlpha" operator="out"></feComposite></filter><path d="M193.89 65.25L195.08 65.32L196.27 65.43L197.43 65.56L198.58 65.72L199.72 65.9L200.83 66.11L201.92 66.35L203 66.61L204.05 66.9L205.08 67.21L206.09 67.54L207.08 67.9L208.04 68.28L208.97 68.68L209.88 69.1L210.76 69.54L211.61 70L212.43 70.49L213.22 70.99L213.98 71.5L214.7 72.04L215.39 72.59L216.05 73.16L216.67 73.75L217.26 74.35L217.81 74.96L218.32 75.59L218.79 76.23L219.22 76.89L219.61 77.55L219.95 78.23L220.26 78.92L220.52 79.62L220.73 80.33L220.9 81.05L221.02 81.78L221.1 82.52L221.12 83.26L221.12 112.9L290.34 112.9L290.34 83.26L290.36 82.52L290.43 81.78L290.56 81.05L290.72 80.33L290.94 79.62L291.2 78.92L291.5 78.23L291.85 77.55L292.24 76.89L292.67 76.23L293.14 75.59L293.65 74.96L294.2 74.35L294.78 73.75L295.41 73.16L296.06 72.59L296.75 72.04L297.48 71.5L298.24 70.99L299.03 70.49L299.85 70L300.7 69.54L301.58 69.1L302.49 68.68L303.42 68.28L304.38 67.9L305.36 67.54L306.37 67.21L307.4 66.9L308.46 66.61L309.53 66.35L310.63 66.11L311.74 65.9L312.88 65.72L314.02 65.56L315.19 65.43L316.37 65.32L317.57 65.25L318.78 65.21L320 65.2L321.22 65.21L322.43 65.25L323.63 65.32L324.81 65.43L325.98 65.56L327.12 65.72L328.26 65.9L329.37 66.11L330.47 66.35L331.54 66.61L332.6 66.9L333.63 67.21L334.64 67.54L335.62 67.9L336.58 68.28L337.51 68.68L338.42 69.1L339.3 69.54L340.15 70L340.97 70.49L341.76 70.99L342.52 71.5L343.25 72.04L343.94 72.59L344.59 73.16L345.22 73.75L345.8 74.35L346.35 74.96L346.86 75.59L347.33 76.23L347.76 76.89L348.15 77.55L348.5 78.23L348.8 78.92L349.06 79.62L349.28 80.33L349.44 81.05L349.57 81.78L349.64 82.52L349.66 83.26L349.66 112.9L418.88 112.9L418.88 83.26L418.9 82.52L418.98 81.78L419.1 81.05L419.27 80.33L419.48 79.62L419.74 78.92L420.05 78.23L420.39 77.55L420.78 76.89L421.21 76.23L421.68 75.59L422.19 74.96L422.74 74.35L423.33 73.75L423.95 73.16L424.61 72.59L425.3 72.04L426.02 71.5L426.78 70.99L427.57 70.49L428.39 70L429.24 69.54L430.12 69.1L431.03 68.68L431.96 68.28L432.92 67.9L433.91 67.54L434.92 67.21L435.95 66.9L437 66.61L438.08 66.35L439.17 66.11L440.28 65.9L441.42 65.72L442.57 65.56L443.73 65.43L444.92 65.32L446.11 65.25L447.32 65.21L448.54 65.2L449.76 65.21L450.97 65.25L452.17 65.32L453.35 65.43L454.52 65.56L455.67 65.72L456.8 65.9L457.91 66.11L459.01 66.35L460.08 66.61L461.14 66.9L462.17 67.21L463.18 67.54L464.16 67.9L465.12 68.28L466.06 68.68L466.96 69.1L467.84 69.54L468.69 70L469.51 70.49L470.3 70.99L471.06 71.5L471.79 72.04L472.48 72.59L473.14 73.16L473.76 73.75L474.34 74.35L474.89 74.96L475.4 75.59L475.87 76.23L476.3 76.89L476.69 77.55L477.04 78.23L477.34 78.92L477.6 79.62L477.82 80.33L477.99 81.05L478.11 81.78L478.18 82.52L478.21 83.26L478.21 112.9L636.41 112.9L636.41 636.95L3.59 636.95L3.59 112.9L161.79 112.9L161.79 83.26L161.82 82.52L161.89 81.78L162.01 81.05L162.18 80.33L162.4 79.62L162.66 78.92L162.96 78.23L163.31 77.55L163.7 76.89L164.13 76.23L164.6 75.59L165.11 74.96L165.66 74.35L166.24 73.75L166.86 73.16L167.52 72.59L168.21 72.04L168.94 71.5L169.7 70.99L170.49 70.49L171.31 70L172.16 69.54L173.04 69.1L173.94 68.68L174.88 68.28L175.84 67.9L176.82 67.54L177.83 67.21L178.86 66.9L179.92 66.61L180.99 66.35L182.09 66.11L183.2 65.9L184.33 65.72L185.48 65.56L186.65 65.43L187.83 65.32L189.03 65.25L190.24 65.21L191.46 65.19L192.68 65.21L193.89 65.25ZM62.92 582.73L577.08 582.73L577.08 167.11L478.21 167.11L478.21 191.69L478.18 192.43L478.11 193.17L477.99 193.9L477.82 194.62L477.6 195.33L477.34 196.03L477.04 196.72L476.69 197.39L476.3 198.06L475.87 198.72L475.4 199.36L474.89 199.99L474.34 200.6L473.76 201.2L473.14 201.79L472.48 202.35L471.79 202.91L471.06 203.44L470.3 203.96L469.51 204.46L468.69 204.94L467.84 205.4L466.96 205.85L466.06 206.27L465.12 206.67L464.16 207.05L463.18 207.4L462.17 207.74L461.14 208.05L460.08 208.34L459.01 208.6L457.91 208.83L456.8 209.05L455.67 209.23L454.52 209.39L453.35 209.52L452.17 209.62L450.97 209.7L449.76 209.74L448.54 209.76L447.32 209.74L446.11 209.7L444.92 209.62L443.73 209.52L442.57 209.39L441.42 209.23L440.28 209.05L439.17 208.83L438.08 208.6L437 208.34L435.95 208.05L434.92 207.74L433.91 207.4L432.92 207.05L431.96 206.67L431.03 206.27L430.12 205.85L429.24 205.4L428.39 204.94L427.57 204.46L426.78 203.96L426.02 203.44L425.3 202.91L424.61 202.35L423.95 201.79L423.33 201.2L422.74 200.6L422.19 199.99L421.68 199.36L421.21 198.72L420.78 198.06L420.39 197.39L420.05 196.72L419.74 196.03L419.48 195.33L419.27 194.62L419.1 193.9L418.98 193.17L418.9 192.43L418.88 191.69L418.88 167.11L349.66 167.11L349.66 191.69L349.64 192.43L349.57 193.17L349.44 193.9L349.28 194.62L349.06 195.33L348.8 196.03L348.5 196.72L348.15 197.39L347.76 198.06L347.33 198.72L346.86 199.36L346.35 199.99L345.8 200.6L345.22 201.2L344.59 201.79L343.94 202.35L343.25 202.91L342.52 203.44L341.76 203.96L340.97 204.46L340.15 204.94L339.3 205.4L338.42 205.85L337.51 206.27L336.58 206.67L335.62 207.05L334.64 207.4L333.63 207.74L332.6 208.05L331.54 208.34L330.47 208.6L329.37 208.83L328.26 209.05L327.12 209.23L325.98 209.39L324.81 209.52L323.63 209.62L322.43 209.7L321.22 209.74L320 209.76L318.78 209.74L317.57 209.7L316.37 209.62L315.19 209.52L314.02 209.39L312.88 209.23L311.74 209.05L310.63 208.83L309.53 208.6L308.46 208.34L307.4 208.05L306.37 207.74L305.36 207.4L304.38 207.05L303.42 206.67L302.49 206.27L301.58 205.85L300.7 205.4L299.85 204.94L299.03 204.46L298.24 203.96L297.48 203.44L296.75 202.91L296.06 202.35L295.41 201.79L294.78 201.2L294.2 200.6L293.65 199.99L293.14 199.36L292.67 198.72L292.24 198.06L291.85 197.39L291.5 196.72L291.2 196.03L290.94 195.33L290.72 194.62L290.56 193.9L290.43 193.17L290.36 192.43L290.34 191.69L290.34 167.11L221.12 167.11L221.12 191.69L221.1 192.43L221.02 193.17L220.9 193.9L220.73 194.62L220.52 195.33L220.26 196.03L219.95 196.72L219.61 197.39L219.22 198.06L218.79 198.72L218.32 199.36L217.81 199.99L217.26 200.6L216.67 201.2L216.05 201.79L215.39 202.35L214.7 202.91L213.98 203.44L213.22 203.96L212.43 204.46L211.61 204.94L210.76 205.4L209.88 205.85L208.97 206.27L208.04 206.67L207.08 207.05L206.09 207.4L205.08 207.74L204.05 208.05L203 208.34L201.92 208.6L200.83 208.83L199.72 209.05L198.58 209.23L197.43 209.39L196.27 209.52L195.08 209.62L193.89 209.7L192.68 209.74L191.46 209.76L190.24 209.74L189.03 209.7L187.83 209.62L186.65 209.52L185.48 209.39L184.33 209.23L183.2 209.05L182.09 208.83L180.99 208.6L179.92 208.34L178.86 208.05L177.83 207.74L176.82 207.4L175.84 207.05L174.88 206.67L173.94 206.27L173.04 205.85L172.16 205.4L171.31 204.94L170.49 204.46L169.7 203.96L168.94 203.44L168.21 202.91L167.52 202.35L166.86 201.79L166.24 201.2L165.66 200.6L165.11 199.99L164.6 199.36L164.13 198.72L163.7 198.06L163.31 197.39L162.96 196.72L162.66 196.03L162.4 195.33L162.18 194.62L162.01 193.9L161.89 193.17L161.82 192.43L161.79 191.69L161.79 167.11L62.92 167.11L62.92 582.73ZM418.88 535.03L418.88 465.37L495.11 465.37L495.11 535.03L418.88 535.03ZM142.02 535.03L142.02 465.37L218.25 465.37L218.25 535.03L142.02 535.03ZM283.32 535.03L283.32 465.37L359.55 465.37L359.55 535.03L283.32 535.03ZM283.32 423.98L283.32 354.32L359.55 354.32L359.55 423.98L283.32 423.98ZM142.02 423.98L142.02 354.32L218.25 354.32L218.25 423.98L142.02 423.98ZM418.88 423.98L418.88 354.32L495.11 354.32L495.11 423.98L418.88 423.98ZM283.32 315.55L283.32 245.9L359.55 245.9L359.55 315.55L283.32 315.55ZM142.02 315.55L142.02 245.9L218.25 245.9L218.25 315.55L142.02 315.55ZM418.88 315.55L418.88 245.9L495.11 245.9L495.11 315.55L418.88 315.55Z" id="bi2XAve7s" fill="white" fill-opacity="1" filter="url(#shadow8749185)"></path></g><use xlink:href="#e3MHEWCwM4" opacity="1" fill="#eeeeee" fill-opacity="1"></use><use xlink:href="#e3MHEWCwM4" opacity="1" fill="#5cb85c" fill-opacity="1"></use><g><filter id="shadow16602006" x="-5.41" y="56.19" width="651.82" height="590.76" filterUnits="userSpaceOnUse" primitiveUnits="userSpaceOnUse"><feFlood></feFlood><feComposite in2="SourceAlpha" operator="out"></feComposite><feGaussianBlur stdDeviation="1"></feGaussianBlur><feOffset dx="1" dy="1" result="afterOffset"></feOffset><feFlood flood-color="#ffffff" flood-opacity="0.8"></feFlood><feComposite in2="afterOffset" operator="in"></feComposite><feMorphology operator="dilate" radius="1"></feMorphology><feComposite in2="SourceAlpha" operator="in"></feComposite></filter><path d="M193.89 65.25L195.08 65.32L196.27 65.43L197.43 65.56L198.58 65.72L199.72 65.9L200.83 66.11L201.92 66.35L203 66.61L204.05 66.9L205.08 67.21L206.09 67.54L207.08 67.9L208.04 68.28L208.97 68.68L209.88 69.1L210.76 69.54L211.61 70L212.43 70.49L213.22 70.99L213.98 71.5L214.7 72.04L215.39 72.59L216.05 73.16L216.67 73.75L217.26 74.35L217.81 74.96L218.32 75.59L218.79 76.23L219.22 76.89L219.61 77.55L219.95 78.23L220.26 78.92L220.52 79.62L220.73 80.33L220.9 81.05L221.02 81.78L221.1 82.52L221.12 83.26L221.12 112.9L290.34 112.9L290.34 83.26L290.36 82.52L290.43 81.78L290.56 81.05L290.72 80.33L290.94 79.62L291.2 78.92L291.5 78.23L291.85 77.55L292.24 76.89L292.67 76.23L293.14 75.59L293.65 74.96L294.2 74.35L294.78 73.75L295.41 73.16L296.06 72.59L296.75 72.04L297.48 71.5L298.24 70.99L299.03 70.49L299.85 70L300.7 69.54L301.58 69.1L302.49 68.68L303.42 68.28L304.38 67.9L305.36 67.54L306.37 67.21L307.4 66.9L308.46 66.61L309.53 66.35L310.63 66.11L311.74 65.9L312.88 65.72L314.02 65.56L315.19 65.43L316.37 65.32L317.57 65.25L318.78 65.21L320 65.2L321.22 65.21L322.43 65.25L323.63 65.32L324.81 65.43L325.98 65.56L327.12 65.72L328.26 65.9L329.37 66.11L330.47 66.35L331.54 66.61L332.6 66.9L333.63 67.21L334.64 67.54L335.62 67.9L336.58 68.28L337.51 68.68L338.42 69.1L339.3 69.54L340.15 70L340.97 70.49L341.76 70.99L342.52 71.5L343.25 72.04L343.94 72.59L344.59 73.16L345.22 73.75L345.8 74.35L346.35 74.96L346.86 75.59L347.33 76.23L347.76 76.89L348.15 77.55L348.5 78.23L348.8 78.92L349.06 79.62L349.28 80.33L349.44 81.05L349.57 81.78L349.64 82.52L349.66 83.26L349.66 112.9L418.88 112.9L418.88 83.26L418.9 82.52L418.98 81.78L419.1 81.05L419.27 80.33L419.48 79.62L419.74 78.92L420.05 78.23L420.39 77.55L420.78 76.89L421.21 76.23L421.68 75.59L422.19 74.96L422.74 74.35L423.33 73.75L423.95 73.16L424.61 72.59L425.3 72.04L426.02 71.5L426.78 70.99L427.57 70.49L428.39 70L429.24 69.54L430.12 69.1L431.03 68.68L431.96 68.28L432.92 67.9L433.91 67.54L434.92 67.21L435.95 66.9L437 66.61L438.08 66.35L439.17 66.11L440.28 65.9L441.42 65.72L442.57 65.56L443.73 65.43L444.92 65.32L446.11 65.25L447.32 65.21L448.54 65.2L449.76 65.21L450.97 65.25L452.17 65.32L453.35 65.43L454.52 65.56L455.67 65.72L456.8 65.9L457.91 66.11L459.01 66.35L460.08 66.61L461.14 66.9L462.17 67.21L463.18 67.54L464.16 67.9L465.12 68.28L466.06 68.68L466.96 69.1L467.84 69.54L468.69 70L469.51 70.49L470.3 70.99L471.06 71.5L471.79 72.04L472.48 72.59L473.14 73.16L473.76 73.75L474.34 74.35L474.89 74.96L475.4 75.59L475.87 76.23L476.3 76.89L476.69 77.55L477.04 78.23L477.34 78.92L477.6 79.62L477.82 80.33L477.99 81.05L478.11 81.78L478.18 82.52L478.21 83.26L478.21 112.9L636.41 112.9L636.41 636.95L3.59 636.95L3.59 112.9L161.79 112.9L161.79 83.26L161.82 82.52L161.89 81.78L162.01 81.05L162.18 80.33L162.4 79.62L162.66 78.92L162.96 78.23L163.31 77.55L163.7 76.89L164.13 76.23L164.6 75.59L165.11 74.96L165.66 74.35L166.24 73.75L166.86 73.16L167.52 72.59L168.21 72.04L168.94 71.5L169.7 70.99L170.49 70.49L171.31 70L172.16 69.54L173.04 69.1L173.94 68.68L174.88 68.28L175.84 67.9L176.82 67.54L177.83 67.21L178.86 66.9L179.92 66.61L180.99 66.35L182.09 66.11L183.2 65.9L184.33 65.72L185.48 65.56L186.65 65.43L187.83 65.32L189.03 65.25L190.24 65.21L191.46 65.19L192.68 65.21L193.89 65.25ZM62.92 582.73L577.08 582.73L577.08 167.11L478.21 167.11L478.21 191.69L478.18 192.43L478.11 193.17L477.99 193.9L477.82 194.62L477.6 195.33L477.34 196.03L477.04 196.72L476.69 197.39L476.3 198.06L475.87 198.72L475.4 199.36L474.89 199.99L474.34 200.6L473.76 201.2L473.14 201.79L472.48 202.35L471.79 202.91L471.06 203.44L470.3 203.96L469.51 204.46L468.69 204.94L467.84 205.4L466.96 205.85L466.06 206.27L465.12 206.67L464.16 207.05L463.18 207.4L462.17 207.74L461.14 208.05L460.08 208.34L459.01 208.6L457.91 208.83L456.8 209.05L455.67 209.23L454.52 209.39L453.35 209.52L452.17 209.62L450.97 209.7L449.76 209.74L448.54 209.76L447.32 209.74L446.11 209.7L444.92 209.62L443.73 209.52L442.57 209.39L441.42 209.23L440.28 209.05L439.17 208.83L438.08 208.6L437 208.34L435.95 208.05L434.92 207.74L433.91 207.4L432.92 207.05L431.96 206.67L431.03 206.27L430.12 205.85L429.24 205.4L428.39 204.94L427.57 204.46L426.78 203.96L426.02 203.44L425.3 202.91L424.61 202.35L423.95 201.79L423.33 201.2L422.74 200.6L422.19 199.99L421.68 199.36L421.21 198.72L420.78 198.06L420.39 197.39L420.05 196.72L419.74 196.03L419.48 195.33L419.27 194.62L419.1 193.9L418.98 193.17L418.9 192.43L418.88 191.69L418.88 167.11L349.66 167.11L349.66 191.69L349.64 192.43L349.57 193.17L349.44 193.9L349.28 194.62L349.06 195.33L348.8 196.03L348.5 196.72L348.15 197.39L347.76 198.06L347.33 198.72L346.86 199.36L346.35 199.99L345.8 200.6L345.22 201.2L344.59 201.79L343.94 202.35L343.25 202.91L342.52 203.44L341.76 203.96L340.97 204.46L340.15 204.94L339.3 205.4L338.42 205.85L337.51 206.27L336.58 206.67L335.62 207.05L334.64 207.4L333.63 207.74L332.6 208.05L331.54 208.34L330.47 208.6L329.37 208.83L328.26 209.05L327.12 209.23L325.98 209.39L324.81 209.52L323.63 209.62L322.43 209.7L321.22 209.74L320 209.76L318.78 209.74L317.57 209.7L316.37 209.62L315.19 209.52L314.02 209.39L312.88 209.23L311.74 209.05L310.63 208.83L309.53 208.6L308.46 208.34L307.4 208.05L306.37 207.74L305.36 207.4L304.38 207.05L303.42 206.67L302.49 206.27L301.58 205.85L300.7 205.4L299.85 204.94L299.03 204.46L298.24 203.96L297.48 203.44L296.75 202.91L296.06 202.35L295.41 201.79L294.78 201.2L294.2 200.6L293.65 199.99L293.14 199.36L292.67 198.72L292.24 198.06L291.85 197.39L291.5 196.72L291.2 196.03L290.94 195.33L290.72 194.62L290.56 193.9L290.43 193.17L290.36 192.43L290.34 191.69L290.34 167.11L221.12 167.11L221.12 191.69L221.1 192.43L221.02 193.17L220.9 193.9L220.73 194.62L220.52 195.33L220.26 196.03L219.95 196.72L219.61 197.39L219.22 198.06L218.79 198.72L218.32 199.36L217.81 199.99L217.26 200.6L216.67 201.2L216.05 201.79L215.39 202.35L214.7 202.91L213.98 203.44L213.22 203.96L212.43 204.46L211.61 204.94L210.76 205.4L209.88 205.85L208.97 206.27L208.04 206.67L207.08 207.05L206.09 207.4L205.08 207.74L204.05 208.05L203 208.34L201.92 208.6L200.83 208.83L199.72 209.05L198.58 209.23L197.43 209.39L196.27 209.52L195.08 209.62L193.89 209.7L192.68 209.74L191.46 209.76L190.24 209.74L189.03 209.7L187.83 209.62L186.65 209.52L185.48 209.39L184.33 209.23L183.2 209.05L182.09 208.83L180.99 208.6L179.92 208.34L178.86 208.05L177.83 207.74L176.82 207.4L175.84 207.05L174.88 206.67L173.94 206.27L173.04 205.85L172.16 205.4L171.31 204.94L170.49 204.46L169.7 203.96L168.94 203.44L168.21 202.91L167.52 202.35L166.86 201.79L166.24 201.2L165.66 200.6L165.11 199.99L164.6 199.36L164.13 198.72L163.7 198.06L163.31 197.39L162.96 196.72L162.66 196.03L162.4 195.33L162.18 194.62L162.01 193.9L161.89 193.17L161.82 192.43L161.79 191.69L161.79 167.11L62.92 167.11L62.92 582.73ZM418.88 535.03L418.88 465.37L495.11 465.37L495.11 535.03L418.88 535.03ZM142.02 535.03L142.02 465.37L218.25 465.37L218.25 535.03L142.02 535.03ZM283.32 535.03L283.32 465.37L359.55 465.37L359.55 535.03L283.32 535.03ZM283.32 423.98L283.32 354.32L359.55 354.32L359.55 423.98L283.32 423.98ZM142.02 423.98L142.02 354.32L218.25 354.32L218.25 423.98L142.02 423.98ZM418.88 423.98L418.88 354.32L495.11 354.32L495.11 423.98L418.88 423.98ZM283.32 315.55L283.32 245.9L359.55 245.9L359.55 315.55L283.32 315.55ZM142.02 315.55L142.02 245.9L218.25 245.9L218.25 315.55L142.02 315.55ZM418.88 315.55L418.88 245.9L495.11 245.9L495.11 315.55L418.88 315.55Z" id="aLmyy0cqh" fill="white" fill-opacity="1" filter="url(#shadow16602006)"></path></g></g></g></g></svg>